<?xml version="1.0" encoding="iso-8859-1"?>
<!-- Generator: Adobe Illustrator 16.0.0, SVG Export Plug-In . SVG Version: 6.00 Build 0)  -->
<!DOCTYPE svg PUBLIC "-//W3C//DTD SVG 1.1//EN" "http://www.w3.org/Graphics/SVG/1.1/DTD/svg11.dtd">
<svg version="1.1" id="Layer_1" xmlns="http://www.w3.org/2000/svg" xmlns:xlink="http://www.w3.org/1999/xlink" x="0px" y="0px"
	 width="170px" height="60px" viewBox="0 0 499.46 151.92" style="enable-background:new 0 0 499.46 151.92;"
	 xml:space="preserve">
<g>
	<path style="fill:#123559;" d="M0.735,89.472L6.51,64.513H0.941L3.623,52.55h5.569l3.197-13.82h18.563l-3.196,13.82h9.075
		L34.15,64.513h-9.179L19.299,89.06c-1.032,4.537,0.309,6.703,5.466,6.703h2.578l-2.372,10.727c-2.372,0.721-5.26,1.34-9.592,1.34
		C3.623,107.829-2.153,102.157,0.735,89.472z"/>
	<path style="fill:#123559;" d="M35.183,85.243c0-18.256,11.654-33.52,30.631-33.52c13.099,0,21.245,7.014,21.144,20.215
		c-0.104,3.816-0.619,7.734-1.857,11.859H53.231v1.135c0,7.529,3.197,10.52,9.901,10.52c4.95,0,9.179-1.34,12.79-3.402h5.877
		l-2.578,11.447c-4.332,2.373-10.313,4.229-18.771,4.229C44.156,107.726,35.08,99.991,35.183,85.243z M54.469,74.104h15.985
		c0.31-1.238,0.413-2.373,0.413-3.609c0-4.951-2.166-7.322-6.188-7.322C59.625,63.173,56.222,67.606,54.469,74.104z"/>
	<path style="fill:#123559;" d="M91.083,85.347c0-20.318,14.852-33.623,34.035-33.623c7.631,0,12.994,1.754,16.811,4.436
		l-2.682,11.551h-6.6c-1.445-1.65-3.713-2.889-7.633-2.889c-9.488,0-15.471,8.973-15.471,20.01c0,6.908,3.197,10.313,9.387,10.313
		c4.33,0,7.219-1.443,9.488-3.094h6.6l-2.785,11.859c-3.197,2.064-8.559,3.816-15.676,3.816
		C99.231,107.726,91.083,98.856,91.083,85.347z"/>
	<path style="fill:#123559;" d="M155.542,34.706h11.037c5.156,0,7.219,1.445,5.26,9.695l-3.507,15.059
		c5.363-4.539,11.139-7.736,19.286-7.736c8.457,0,14.232,6.291,11.448,18.461l-8.457,36.717h-12.893
		c-3.815,0-5.156-1.754-3.815-7.529l6.085-27.125c0.928-4.125-0.206-5.98-3.919-5.98c-2.991,0-6.085,1.031-10.004,3.197
		l-8.457,37.438h-18.564L155.542,34.706z"/>
	<path style="fill:#5D89B4;" d="M214.539,64.513h-5.879l2.682-11.963h5.878l0.723-3.197c2.578-11.449,9.591-15.883,20.833-15.883
		c4.744,0,7.941,0.721,10.004,1.547l-2.269,10.313h-2.785c-4.435,0-6.601,0.826-7.426,4.643l-0.618,2.578h8.56l-2.682,11.963H233
		l-9.592,42.389h-18.255L214.539,64.513z"/>
	<path style="fill:#5D89B4;" d="M241.561,85.243c0-18.256,11.654-33.52,30.63-33.52c13.098,0,21.246,7.014,21.143,20.215
		c-0.104,3.816-0.619,7.734-1.855,11.859h-31.869v1.135c0,7.529,3.197,10.52,9.9,10.52c4.951,0,9.18-1.34,12.789-3.402h5.879
		l-2.578,11.447c-4.332,2.373-10.314,4.229-18.771,4.229C250.534,107.726,241.458,99.991,241.561,85.243z M260.848,74.104h15.984
		c0.311-1.238,0.414-2.373,0.414-3.609c0-4.951-2.166-7.322-6.189-7.322C266.004,63.173,262.6,67.606,260.848,74.104z"/>
	<path style="fill:#5D89B4;" d="M299.111,89.472l5.775-24.959h-5.568L302,52.55h5.568l3.197-13.82h18.564l-3.197,13.82h9.076
		l-2.682,11.963h-9.18l-5.672,24.547c-1.031,4.537,0.309,6.703,5.467,6.703h2.578l-2.373,10.727c-2.371,0.721-5.26,1.34-9.592,1.34
		C302,107.829,296.225,102.157,299.111,89.472z"/>
	<path style="fill:#5D89B4;" d="M333.766,85.347c0-20.318,14.852-33.623,34.035-33.623c7.631,0,12.994,1.754,16.811,4.436
		L381.93,67.71h-6.6c-1.445-1.65-3.713-2.889-7.633-2.889c-9.488,0-15.471,8.973-15.471,20.01c0,6.908,3.197,10.313,9.387,10.313
		c4.33,0,7.219-1.443,9.488-3.094h6.6l-2.785,11.859c-3.197,2.064-8.559,3.816-15.676,3.816
		C341.914,107.726,333.766,98.856,333.766,85.347z"/>
	<path style="fill:#5D89B4;" d="M398.225,34.706h11.037c5.156,0,7.219,1.445,5.26,9.695l-3.508,15.059
		c5.363-4.539,11.139-7.736,19.287-7.736c8.457,0,14.232,6.291,11.447,18.461l-8.457,36.717h-12.893
		c-3.814,0-5.156-1.754-3.814-7.529l6.084-27.125c0.928-4.125-0.205-5.98-3.918-5.98c-2.992,0-6.086,1.031-10.004,3.197
		l-8.457,37.438h-18.564L398.225,34.706z"/>
</g>
<path style="fill:#E75300;" d="M499.119,36.557l0.031-0.014c-0.359-1.171-0.998-2.299-2.094-3.185
	c-4.021-3.253-64.049-32.925-64.049-32.925s-7.477-2.769-8.51,5.686c0,0,43.01,25.396,48.324,39.75
	c5.318,14.354-10.9,61.667-10.9,61.667c6.281,5.756,10.162-1.203,10.162-1.203s26.334-61.567,27.277-66.651
	C499.574,38.556,499.436,37.513,499.119,36.557z"/>
<g>
	<path style="fill:#123458;" d="M78.791,122.035c0,0.084-0.009,0.22-0.027,0.406c-0.018,0.188-0.048,0.395-0.09,0.623
		c-0.042,0.229-0.097,0.468-0.163,0.714c-0.066,0.247-0.145,0.473-0.234,0.678c-0.091,0.205-0.199,0.373-0.325,0.506
		c-0.127,0.133-0.262,0.198-0.407,0.198h-5.872l-3.758,18.844c-0.036,0.12-0.103,0.229-0.199,0.325
		c-0.097,0.097-0.244,0.175-0.443,0.235c-0.198,0.06-0.451,0.107-0.759,0.145c-0.307,0.035-0.695,0.054-1.165,0.054
		c-0.458,0-0.837-0.019-1.138-0.054c-0.301-0.037-0.533-0.085-0.696-0.145c-0.162-0.061-0.271-0.139-0.325-0.235
		c-0.054-0.097-0.069-0.205-0.045-0.325l3.758-18.844h-5.817c-0.181,0-0.304-0.065-0.37-0.198c-0.066-0.133-0.1-0.313-0.1-0.542
		c0-0.097,0.009-0.237,0.027-0.425c0.018-0.187,0.048-0.397,0.09-0.632c0.042-0.235,0.097-0.476,0.163-0.723
		c0.066-0.247,0.147-0.473,0.244-0.678c0.096-0.205,0.205-0.37,0.325-0.497c0.12-0.126,0.253-0.189,0.397-0.189h16.477
		c0.145,0,0.256,0.066,0.334,0.198C78.752,121.607,78.791,121.794,78.791,122.035z"/>
	<path style="fill:#123458;" d="M91.813,133.345c0,0.867-0.081,1.759-0.244,2.674c-0.162,0.915-0.418,1.81-0.768,2.683
		c-0.35,0.874-0.798,1.692-1.346,2.457c-0.549,0.766-1.205,1.439-1.97,2.023c-0.765,0.585-1.641,1.045-2.629,1.383
		c-0.987,0.337-2.102,0.506-3.342,0.506c-1.217,0-2.268-0.143-3.152-0.425c-0.886-0.283-1.624-0.698-2.213-1.247
		c-0.59-0.548-1.03-1.222-1.319-2.023c-0.289-0.801-0.434-1.719-0.434-2.755c0-0.867,0.081-1.759,0.244-2.674
		c0.162-0.915,0.418-1.807,0.768-2.674c0.349-0.867,0.798-1.689,1.346-2.466c0.548-0.777,1.205-1.455,1.97-2.033
		c0.765-0.578,1.641-1.035,2.629-1.373c0.987-0.337,2.102-0.506,3.342-0.506c1.217,0,2.268,0.143,3.152,0.425
		c0.886,0.283,1.623,0.699,2.213,1.247c0.591,0.548,1.03,1.223,1.319,2.023S91.813,132.309,91.813,133.345z M87.115,133.652
		c0-0.506-0.052-0.955-0.153-1.347c-0.103-0.391-0.271-0.723-0.506-0.993c-0.235-0.271-0.536-0.479-0.903-0.623
		c-0.368-0.145-0.816-0.217-1.347-0.217c-0.602,0-1.144,0.117-1.625,0.352c-0.482,0.235-0.913,0.551-1.292,0.949
		c-0.38,0.396-0.708,0.857-0.985,1.382c-0.277,0.523-0.506,1.075-0.687,1.653s-0.313,1.165-0.397,1.761
		c-0.084,0.597-0.126,1.165-0.126,1.708c0,0.506,0.051,0.957,0.153,1.354c0.103,0.397,0.271,0.731,0.506,1.003
		c0.235,0.271,0.536,0.479,0.903,0.623c0.368,0.145,0.816,0.217,1.347,0.217c0.602,0,1.144-0.117,1.625-0.353
		c0.482-0.234,0.913-0.554,1.292-0.957c0.38-0.403,0.708-0.867,0.985-1.392c0.276-0.523,0.506-1.077,0.686-1.662
		c0.182-0.584,0.313-1.171,0.398-1.762C87.073,134.76,87.115,134.193,87.115,133.652z"/>
	<path style="fill:#123458;" d="M111.14,133.037c0,0.783-0.072,1.627-0.217,2.529c-0.145,0.904-0.367,1.801-0.668,2.692
		c-0.302,0.892-0.688,1.75-1.156,2.574c-0.471,0.825-1.033,1.551-1.689,2.177c-0.657,0.627-1.409,1.127-2.259,1.5
		c-0.849,0.373-1.804,0.561-2.863,0.561c-0.481,0-0.934-0.049-1.354-0.145c-0.422-0.097-0.811-0.232-1.166-0.407
		c-0.355-0.174-0.678-0.379-0.967-0.614c-0.289-0.234-0.541-0.484-0.758-0.75l-1.428,7.281c-0.024,0.12-0.081,0.229-0.172,0.325
		c-0.09,0.097-0.229,0.178-0.415,0.244c-0.188,0.065-0.431,0.117-0.731,0.153c-0.302,0.036-0.675,0.055-1.121,0.055
		c-0.445,0-0.807-0.019-1.084-0.055c-0.276-0.036-0.496-0.088-0.659-0.153c-0.162-0.066-0.268-0.147-0.315-0.244
		c-0.049-0.097-0.061-0.205-0.037-0.325l4.518-22.529c0.048-0.252,0.234-0.434,0.56-0.541c0.325-0.109,0.861-0.163,1.608-0.163
		c0.373,0,0.677,0.016,0.912,0.045c0.234,0.03,0.421,0.072,0.56,0.127c0.139,0.054,0.232,0.126,0.28,0.217
		c0.048,0.09,0.061,0.195,0.036,0.315l-0.506,2.62c0.181-0.397,0.467-0.81,0.858-1.237c0.391-0.428,0.86-0.819,1.409-1.175
		c0.548-0.354,1.149-0.647,1.807-0.876c0.656-0.229,1.334-0.344,2.032-0.344c0.928,0,1.707,0.16,2.34,0.479
		c0.632,0.319,1.144,0.756,1.535,1.31s0.675,1.204,0.85,1.951C111.052,131.382,111.14,132.183,111.14,133.037z M106.46,133.436
		c0-0.41-0.033-0.783-0.099-1.121c-0.066-0.337-0.175-0.623-0.325-0.857c-0.151-0.235-0.344-0.413-0.578-0.533
		c-0.235-0.12-0.521-0.181-0.858-0.181c-0.542,0-1.087,0.16-1.635,0.479c-0.549,0.319-1.063,0.753-1.545,1.301
		c-0.481,0.549-0.909,1.187-1.282,1.915c-0.374,0.729-0.639,1.509-0.795,2.34l-0.506,2.457c0.421,0.662,0.888,1.159,1.399,1.49
		c0.512,0.332,1.105,0.497,1.78,0.497c0.493,0,0.948-0.12,1.363-0.361c0.416-0.241,0.789-0.563,1.12-0.967
		c0.331-0.403,0.62-0.87,0.867-1.399c0.247-0.53,0.452-1.084,0.614-1.662c0.163-0.578,0.283-1.159,0.361-1.744
		C106.421,134.504,106.46,133.953,106.46,133.436z"/>
	<path style="fill:#123458;" d="M129.468,138.439c-0.204,0.987-0.481,1.888-0.83,2.701c-0.35,0.813-0.805,1.506-1.364,2.077
		c-0.561,0.572-1.235,1.015-2.023,1.328c-0.789,0.313-1.72,0.47-2.792,0.47c-0.565,0-1.104-0.042-1.616-0.127
		c-0.513-0.084-0.934-0.198-1.265-0.343s-0.542-0.28-0.633-0.406c-0.09-0.127-0.135-0.305-0.135-0.533
		c0-0.097,0.012-0.247,0.035-0.452c0.024-0.204,0.061-0.434,0.109-0.686c0.048-0.254,0.105-0.516,0.171-0.786
		c0.066-0.271,0.142-0.518,0.226-0.741c0.085-0.223,0.175-0.403,0.271-0.542c0.097-0.138,0.192-0.208,0.289-0.208
		c0.156,0,0.295,0.037,0.416,0.109c0.12,0.072,0.262,0.153,0.424,0.243c0.163,0.091,0.355,0.175,0.578,0.253
		c0.223,0.079,0.509,0.117,0.858,0.117c0.361,0,0.681-0.051,0.958-0.153c0.276-0.102,0.515-0.265,0.713-0.487
		c0.199-0.223,0.371-0.509,0.516-0.858s0.265-0.783,0.361-1.301l3.27-16.224c0.024-0.12,0.081-0.226,0.172-0.316
		c0.09-0.09,0.234-0.165,0.434-0.226c0.198-0.061,0.454-0.105,0.768-0.136c0.313-0.029,0.698-0.045,1.156-0.045
		c0.445,0,0.815,0.012,1.111,0.036c0.295,0.024,0.529,0.066,0.704,0.126c0.175,0.061,0.295,0.136,0.361,0.227
		c0.066,0.09,0.088,0.201,0.063,0.334L129.468,138.439z"/>
	<path style="fill:#123458;" d="M150.728,133.345c0,0.867-0.081,1.759-0.244,2.674c-0.162,0.915-0.418,1.81-0.768,2.683
		c-0.35,0.874-0.798,1.692-1.346,2.457c-0.549,0.766-1.205,1.439-1.97,2.023c-0.765,0.585-1.641,1.045-2.628,1.383
		c-0.988,0.337-2.103,0.506-3.343,0.506c-1.217,0-2.268-0.143-3.152-0.425c-0.886-0.283-1.623-0.698-2.214-1.247
		c-0.59-0.548-1.029-1.222-1.318-2.023c-0.289-0.801-0.434-1.719-0.434-2.755c0-0.867,0.081-1.759,0.244-2.674
		c0.162-0.915,0.418-1.807,0.768-2.674s0.798-1.689,1.346-2.466c0.548-0.777,1.204-1.455,1.97-2.033
		c0.765-0.578,1.641-1.035,2.628-1.373c0.988-0.337,2.103-0.506,3.343-0.506c1.217,0,2.268,0.143,3.152,0.425
		c0.886,0.283,1.623,0.699,2.214,1.247c0.59,0.548,1.029,1.223,1.318,2.023S150.728,132.309,150.728,133.345z M146.03,133.652
		c0-0.506-0.052-0.955-0.153-1.347c-0.103-0.391-0.271-0.723-0.506-0.993c-0.235-0.271-0.536-0.479-0.903-0.623
		c-0.368-0.145-0.816-0.217-1.346-0.217c-0.603,0-1.145,0.117-1.627,0.352c-0.481,0.235-0.912,0.551-1.291,0.949
		c-0.38,0.396-0.708,0.857-0.984,1.382c-0.277,0.523-0.506,1.075-0.688,1.653c-0.18,0.578-0.313,1.165-0.396,1.761
		c-0.085,0.597-0.127,1.165-0.127,1.708c0,0.506,0.051,0.957,0.153,1.354s0.271,0.731,0.506,1.003
		c0.235,0.271,0.536,0.479,0.903,0.623s0.816,0.217,1.346,0.217c0.603,0,1.145-0.117,1.627-0.353
		c0.481-0.234,0.912-0.554,1.291-0.957c0.38-0.403,0.708-0.867,0.984-1.392c0.277-0.523,0.506-1.077,0.688-1.662
		c0.18-0.584,0.313-1.171,0.396-1.762C145.988,134.76,146.03,134.193,146.03,133.652z"/>
	<path style="fill:#123458;" d="M170.055,133.037c0,0.795-0.072,1.645-0.217,2.548s-0.367,1.801-0.669,2.692
		c-0.301,0.891-0.686,1.746-1.156,2.564c-0.469,0.819-1.035,1.542-1.697,2.168c-0.663,0.627-1.419,1.127-2.268,1.5
		c-0.85,0.373-1.798,0.561-2.846,0.561c-1.012,0-1.906-0.199-2.683-0.597c-0.777-0.397-1.448-1-2.015-1.807l-0.271,1.373
		c-0.048,0.253-0.237,0.437-0.568,0.551c-0.332,0.114-0.864,0.172-1.6,0.172c-0.723,0-1.213-0.061-1.472-0.181
		c-0.26-0.12-0.364-0.301-0.316-0.542l4.751-23.757c0.024-0.121,0.079-0.229,0.163-0.326c0.084-0.096,0.223-0.177,0.415-0.243
		c0.193-0.066,0.437-0.118,0.732-0.153c0.295-0.037,0.665-0.055,1.111-0.055c0.445,0,0.807,0.018,1.084,0.055
		c0.276,0.035,0.496,0.087,0.659,0.153c0.162,0.066,0.268,0.147,0.315,0.243c0.049,0.097,0.061,0.205,0.037,0.326l-1.283,6.467
		c-0.061,0.277-0.127,0.569-0.199,0.877c-0.072,0.307-0.153,0.611-0.243,0.912c-0.091,0.301-0.181,0.594-0.271,0.876
		c-0.09,0.283-0.178,0.533-0.262,0.75c0.217-0.386,0.526-0.773,0.931-1.165c0.403-0.392,0.864-0.744,1.382-1.057
		c0.518-0.313,1.075-0.566,1.671-0.76c0.597-0.192,1.195-0.289,1.798-0.289c0.687,0,1.282,0.088,1.788,0.263
		s0.946,0.412,1.319,0.714c0.373,0.301,0.681,0.656,0.921,1.065c0.241,0.409,0.434,0.84,0.578,1.292
		c0.145,0.451,0.244,0.918,0.299,1.4C170.027,132.11,170.055,132.58,170.055,133.037z M165.376,133.489
		c0-0.301-0.021-0.614-0.063-0.939c-0.043-0.325-0.133-0.62-0.271-0.886c-0.139-0.265-0.328-0.481-0.569-0.65
		c-0.24-0.168-0.56-0.252-0.957-0.252c-0.542,0-1.087,0.159-1.635,0.479c-0.549,0.319-1.063,0.756-1.545,1.31
		s-0.909,1.198-1.283,1.933c-0.373,0.735-0.638,1.518-0.795,2.35l-0.506,2.438c0.422,0.662,0.889,1.153,1.4,1.473
		s1.105,0.479,1.779,0.479c0.482,0,0.928-0.117,1.338-0.353c0.409-0.234,0.779-0.545,1.11-0.93c0.331-0.386,0.62-0.838,0.867-1.355
		s0.455-1.063,0.624-1.635c0.168-0.572,0.295-1.153,0.379-1.744C165.333,134.615,165.376,134.043,165.376,133.489z"/>
	<path style="fill:#123458;" d="M184.72,128.629c0,0.145-0.021,0.359-0.063,0.642c-0.043,0.283-0.105,0.569-0.189,0.858
		c-0.085,0.289-0.185,0.539-0.299,0.75s-0.244,0.316-0.389,0.316c-0.156,0-0.34-0.058-0.551-0.172s-0.467-0.241-0.768-0.38
		c-0.301-0.138-0.653-0.262-1.057-0.37c-0.404-0.108-0.877-0.162-1.418-0.162c-0.422,0-0.799,0.054-1.13,0.162
		s-0.604,0.256-0.821,0.442c-0.217,0.188-0.383,0.407-0.497,0.659c-0.115,0.254-0.172,0.524-0.172,0.813
		c0,0.373,0.153,0.687,0.461,0.939c0.307,0.253,0.689,0.491,1.147,0.714c0.457,0.223,0.951,0.454,1.48,0.695
		c0.53,0.241,1.024,0.542,1.482,0.903c0.457,0.361,0.837,0.801,1.138,1.319c0.301,0.518,0.452,1.168,0.452,1.951
		c0,0.915-0.175,1.761-0.524,2.538c-0.35,0.776-0.858,1.448-1.526,2.015c-0.669,0.565-1.481,1.009-2.439,1.327
		c-0.957,0.319-2.038,0.479-3.242,0.479c-0.578,0-1.13-0.043-1.653-0.127c-0.524-0.084-0.994-0.187-1.409-0.307
		c-0.416-0.121-0.768-0.26-1.057-0.416s-0.506-0.301-0.65-0.434c-0.097-0.097-0.166-0.199-0.208-0.307
		c-0.043-0.109-0.063-0.247-0.063-0.416c0-0.108,0.009-0.247,0.027-0.416c0.018-0.168,0.048-0.354,0.09-0.56
		s0.091-0.409,0.145-0.614c0.055-0.205,0.117-0.392,0.189-0.561c0.072-0.168,0.151-0.304,0.235-0.406
		c0.084-0.102,0.175-0.153,0.271-0.153c0.169,0,0.355,0.072,0.561,0.217s0.47,0.305,0.795,0.479
		c0.325,0.175,0.726,0.338,1.201,0.488s1.069,0.226,1.779,0.226c0.494,0,0.925-0.057,1.292-0.172
		c0.367-0.114,0.672-0.273,0.913-0.479c0.24-0.205,0.418-0.439,0.532-0.705c0.114-0.265,0.172-0.548,0.172-0.849
		c0-0.422-0.147-0.765-0.442-1.03c-0.296-0.265-0.666-0.512-1.111-0.74s-0.931-0.464-1.454-0.705
		c-0.524-0.24-1.009-0.535-1.454-0.885c-0.446-0.35-0.816-0.783-1.111-1.301c-0.296-0.518-0.443-1.168-0.443-1.951
		c0-0.855,0.163-1.65,0.488-2.385s0.801-1.376,1.428-1.924c0.626-0.548,1.385-0.976,2.275-1.283
		c0.892-0.307,1.903-0.461,3.035-0.461c0.506,0,0.997,0.034,1.473,0.1c0.476,0.066,0.903,0.154,1.283,0.262
		c0.379,0.109,0.71,0.229,0.993,0.361c0.283,0.133,0.485,0.266,0.605,0.398C184.654,128.136,184.72,128.34,184.72,128.629z"/>
	<path style="fill:#123458;" d="M208.324,120.59c0,0.072-0.009,0.189-0.027,0.353c-0.018,0.162-0.042,0.346-0.072,0.551
		s-0.069,0.415-0.117,0.632s-0.105,0.419-0.172,0.605c-0.066,0.188-0.142,0.338-0.226,0.452s-0.175,0.171-0.271,0.171
		c-0.072,0-0.165-0.018-0.279-0.054c-0.115-0.036-0.244-0.075-0.389-0.117s-0.311-0.081-0.497-0.118
		c-0.187-0.035-0.388-0.054-0.604-0.054c-0.386,0-0.721,0.054-1.003,0.163c-0.283,0.107-0.527,0.279-0.731,0.515
		c-0.205,0.234-0.38,0.539-0.524,0.912s-0.265,0.819-0.361,1.337l-0.271,1.373h2.926c0.182,0,0.308,0.058,0.38,0.172
		s0.108,0.298,0.108,0.551c0,0.12-0.009,0.277-0.027,0.47c-0.018,0.192-0.051,0.4-0.1,0.623c-0.048,0.224-0.107,0.442-0.18,0.659
		s-0.151,0.416-0.235,0.597s-0.184,0.328-0.298,0.442c-0.115,0.115-0.238,0.172-0.371,0.172h-2.963l-2.836,14.164
		c-0.205,1-0.485,1.879-0.84,2.638c-0.355,0.759-0.805,1.394-1.346,1.906c-0.543,0.512-1.184,0.896-1.925,1.156
		c-0.74,0.259-1.581,0.388-2.521,0.388c-0.626,0-1.149-0.048-1.571-0.145c-0.422-0.096-0.692-0.192-0.813-0.289
		c-0.06-0.072-0.102-0.15-0.126-0.234s-0.036-0.205-0.036-0.361c0-0.072,0.009-0.192,0.027-0.361
		c0.018-0.169,0.045-0.353,0.081-0.551c0.036-0.199,0.081-0.406,0.136-0.623c0.054-0.217,0.114-0.416,0.181-0.597
		s0.142-0.328,0.226-0.442c0.084-0.115,0.181-0.172,0.289-0.172c0.072,0,0.145,0.006,0.217,0.018
		c0.072,0.013,0.15,0.027,0.234,0.046c0.085,0.018,0.185,0.033,0.299,0.045s0.262,0.019,0.442,0.019c0.386,0,0.72-0.058,1.003-0.172
		c0.282-0.115,0.526-0.292,0.731-0.533s0.38-0.551,0.524-0.931c0.145-0.379,0.271-0.84,0.379-1.382l2.729-13.586h-2.023
		c-0.145,0-0.257-0.051-0.335-0.153s-0.117-0.298-0.117-0.587c0-0.121,0.009-0.277,0.027-0.471c0.018-0.192,0.048-0.396,0.09-0.613
		s0.094-0.437,0.153-0.66c0.061-0.223,0.139-0.421,0.235-0.596s0.201-0.319,0.316-0.434c0.114-0.114,0.25-0.172,0.406-0.172h1.987
		l0.344-1.789c0.192-1.012,0.476-1.902,0.849-2.674c0.373-0.771,0.834-1.415,1.382-1.933s1.192-0.906,1.934-1.165
		c0.74-0.259,1.58-0.389,2.52-0.389c0.313,0,0.627,0.016,0.939,0.045c0.313,0.03,0.597,0.072,0.85,0.127
		c0.253,0.054,0.476,0.117,0.668,0.189c0.193,0.072,0.326,0.145,0.398,0.217c0.072,0.061,0.123,0.145,0.153,0.253
		C208.309,120.301,208.324,120.434,208.324,120.59z"/>
	<path style="fill:#123458;" d="M223.044,133.345c0,0.867-0.081,1.759-0.244,2.674c-0.162,0.915-0.418,1.81-0.768,2.683
		c-0.35,0.874-0.798,1.692-1.346,2.457c-0.549,0.766-1.205,1.439-1.97,2.023c-0.765,0.585-1.641,1.045-2.628,1.383
		c-0.988,0.337-2.103,0.506-3.343,0.506c-1.217,0-2.268-0.143-3.152-0.425c-0.886-0.283-1.623-0.698-2.214-1.247
		c-0.59-0.548-1.029-1.222-1.318-2.023c-0.289-0.801-0.434-1.719-0.434-2.755c0-0.867,0.081-1.759,0.244-2.674
		c0.162-0.915,0.418-1.807,0.768-2.674s0.798-1.689,1.346-2.466c0.548-0.777,1.204-1.455,1.97-2.033
		c0.765-0.578,1.641-1.035,2.628-1.373c0.988-0.337,2.103-0.506,3.343-0.506c1.217,0,2.268,0.143,3.152,0.425
		c0.886,0.283,1.623,0.699,2.214,1.247c0.59,0.548,1.029,1.223,1.318,2.023S223.044,132.309,223.044,133.345z M218.347,133.652
		c0-0.506-0.052-0.955-0.153-1.347c-0.103-0.391-0.271-0.723-0.506-0.993c-0.235-0.271-0.536-0.479-0.903-0.623
		c-0.368-0.145-0.816-0.217-1.346-0.217c-0.603,0-1.145,0.117-1.627,0.352c-0.481,0.235-0.912,0.551-1.291,0.949
		c-0.38,0.396-0.708,0.857-0.984,1.382c-0.277,0.523-0.506,1.075-0.688,1.653c-0.18,0.578-0.313,1.165-0.396,1.761
		c-0.085,0.597-0.127,1.165-0.127,1.708c0,0.506,0.051,0.957,0.153,1.354s0.271,0.731,0.506,1.003
		c0.235,0.271,0.536,0.479,0.903,0.623s0.816,0.217,1.346,0.217c0.603,0,1.145-0.117,1.627-0.353
		c0.481-0.234,0.912-0.554,1.291-0.957c0.38-0.403,0.708-0.867,0.984-1.392c0.277-0.523,0.506-1.077,0.688-1.662
		c0.18-0.584,0.313-1.171,0.396-1.762C218.305,134.76,218.347,134.193,218.347,133.652z"/>
	<path style="fill:#123458;" d="M237.963,127.672c0,0.084-0.012,0.234-0.036,0.451s-0.061,0.471-0.108,0.76
		s-0.108,0.587-0.181,0.894c-0.072,0.308-0.153,0.594-0.244,0.858c-0.09,0.265-0.192,0.481-0.307,0.65
		c-0.115,0.169-0.238,0.253-0.371,0.253c-0.107,0-0.217-0.021-0.324-0.063c-0.109-0.042-0.229-0.084-0.361-0.126
		c-0.133-0.042-0.277-0.084-0.434-0.127c-0.157-0.042-0.338-0.063-0.543-0.063c-0.409,0-0.846,0.157-1.31,0.471
		c-0.464,0.313-0.906,0.726-1.327,1.237c-0.422,0.512-0.799,1.108-1.13,1.788c-0.331,0.681-0.569,1.395-0.714,2.141l-1.445,7.245
		c-0.023,0.12-0.081,0.226-0.171,0.316c-0.091,0.09-0.229,0.165-0.416,0.226s-0.431,0.105-0.731,0.136
		c-0.301,0.029-0.668,0.045-1.102,0.045c-0.446,0-0.811-0.016-1.094-0.045c-0.283-0.03-0.506-0.075-0.668-0.136
		c-0.163-0.061-0.269-0.136-0.316-0.226c-0.048-0.091-0.061-0.196-0.036-0.316l3.216-16.134c0.024-0.12,0.078-0.226,0.162-0.315
		c0.085-0.091,0.208-0.163,0.371-0.217c0.162-0.055,0.373-0.097,0.632-0.127c0.259-0.029,0.569-0.045,0.931-0.045
		c0.373,0,0.678,0.016,0.912,0.045c0.235,0.03,0.419,0.072,0.551,0.127c0.133,0.054,0.22,0.126,0.263,0.217
		c0.042,0.09,0.051,0.195,0.026,0.315l-0.506,2.566c0.289-0.519,0.624-0.994,1.003-1.428c0.38-0.434,0.783-0.81,1.211-1.129
		c0.427-0.319,0.87-0.569,1.327-0.75c0.458-0.181,0.91-0.271,1.355-0.271c0.181,0,0.364,0.013,0.551,0.037
		c0.187,0.023,0.361,0.054,0.524,0.09c0.162,0.036,0.307,0.081,0.434,0.136c0.126,0.054,0.226,0.111,0.298,0.171
		C237.927,127.4,237.963,127.516,237.963,127.672z"/>
	<path style="fill:#123458;" d="M262.219,123.064c0,0.097-0.01,0.235-0.027,0.416c-0.019,0.181-0.045,0.379-0.082,0.596
		c-0.035,0.217-0.081,0.438-0.135,0.66c-0.055,0.223-0.121,0.428-0.199,0.614s-0.165,0.34-0.262,0.46
		c-0.097,0.121-0.199,0.182-0.307,0.182c-0.169,0-0.38-0.075-0.633-0.227c-0.253-0.15-0.563-0.313-0.931-0.487
		s-0.798-0.337-1.292-0.488c-0.493-0.15-1.054-0.226-1.68-0.226c-0.65,0-1.201,0.09-1.653,0.271c-0.451,0.18-0.821,0.418-1.11,0.713
		c-0.289,0.296-0.504,0.627-0.642,0.994c-0.139,0.367-0.208,0.737-0.208,1.111c0,0.434,0.108,0.815,0.325,1.146
		c0.217,0.332,0.506,0.639,0.867,0.922s0.773,0.557,1.237,0.822c0.464,0.265,0.934,0.541,1.409,0.83s0.945,0.605,1.409,0.949
		c0.464,0.343,0.877,0.74,1.238,1.192c0.361,0.451,0.65,0.97,0.867,1.554s0.324,1.256,0.324,2.014c0,1.133-0.229,2.184-0.686,3.153
		c-0.458,0.97-1.105,1.813-1.942,2.529c-0.838,0.717-1.85,1.279-3.035,1.688c-1.187,0.41-2.503,0.615-3.949,0.615
		c-0.782,0-1.505-0.063-2.168-0.19c-0.662-0.126-1.249-0.28-1.761-0.46c-0.513-0.182-0.942-0.371-1.292-0.569
		c-0.35-0.199-0.608-0.389-0.777-0.569c-0.168-0.181-0.252-0.451-0.252-0.813c0-0.097,0.012-0.241,0.035-0.434
		c0.024-0.193,0.058-0.4,0.1-0.624c0.042-0.223,0.094-0.451,0.154-0.687c0.06-0.234,0.132-0.448,0.217-0.641
		c0.084-0.193,0.177-0.35,0.279-0.471c0.103-0.12,0.214-0.18,0.334-0.18c0.205,0,0.449,0.093,0.732,0.279
		c0.282,0.188,0.635,0.392,1.057,0.614c0.422,0.224,0.922,0.431,1.5,0.624c0.578,0.192,1.271,0.289,2.077,0.289
		c0.712,0,1.335-0.091,1.871-0.271c0.535-0.181,0.984-0.428,1.346-0.74c0.361-0.313,0.635-0.678,0.822-1.094
		c0.187-0.415,0.279-0.87,0.279-1.363c0-0.446-0.107-0.838-0.324-1.175s-0.504-0.647-0.858-0.931
		c-0.355-0.282-0.759-0.551-1.211-0.804c-0.451-0.253-0.912-0.524-1.383-0.813c-0.47-0.289-0.931-0.602-1.382-0.939
		c-0.452-0.337-0.855-0.731-1.211-1.183c-0.355-0.452-0.642-0.973-0.858-1.563c-0.217-0.59-0.324-1.276-0.324-2.059
		c0-1.084,0.217-2.084,0.65-3c0.434-0.915,1.035-1.7,1.807-2.357c0.771-0.656,1.692-1.168,2.765-1.535s2.252-0.551,3.541-0.551
		c0.603,0,1.174,0.045,1.717,0.135c0.541,0.091,1.035,0.205,1.48,0.344c0.446,0.139,0.825,0.292,1.139,0.461
		c0.313,0.168,0.53,0.31,0.65,0.424c0.12,0.115,0.208,0.235,0.262,0.361C262.191,122.713,262.219,122.872,262.219,123.064z"/>
	<path style="fill:#123458;" d="M287.922,144.04c-0.023,0.12-0.081,0.226-0.171,0.316c-0.091,0.09-0.232,0.165-0.425,0.226
		s-0.437,0.105-0.731,0.136c-0.296,0.029-0.666,0.045-1.111,0.045c-0.434,0-0.795-0.016-1.084-0.045
		c-0.289-0.03-0.512-0.075-0.669-0.136c-0.156-0.061-0.262-0.136-0.315-0.226c-0.055-0.091-0.063-0.196-0.027-0.316l1.933-9.665
		c0.049-0.277,0.091-0.552,0.127-0.822c0.036-0.271,0.055-0.545,0.055-0.822c0-0.566-0.106-1.023-0.316-1.373
		c-0.211-0.35-0.588-0.523-1.129-0.523c-0.482,0-0.982,0.156-1.5,0.469c-0.518,0.313-1.015,0.738-1.49,1.274
		c-0.477,0.536-0.897,1.162-1.265,1.879c-0.368,0.717-0.63,1.479-0.786,2.285l-1.463,7.299c-0.024,0.12-0.082,0.226-0.172,0.316
		c-0.091,0.09-0.232,0.165-0.425,0.226s-0.437,0.105-0.731,0.136c-0.296,0.029-0.666,0.045-1.111,0.045
		c-0.434,0-0.792-0.016-1.075-0.045c-0.283-0.03-0.503-0.075-0.659-0.136s-0.262-0.136-0.316-0.226
		c-0.054-0.091-0.069-0.196-0.045-0.316l1.915-9.665c0.072-0.277,0.123-0.563,0.153-0.858s0.045-0.581,0.045-0.858
		c0-0.53-0.107-0.967-0.324-1.31c-0.217-0.344-0.591-0.515-1.121-0.515c-0.481,0-0.981,0.156-1.499,0.469
		c-0.518,0.313-1.015,0.738-1.49,1.274c-0.477,0.536-0.897,1.162-1.265,1.879c-0.368,0.717-0.63,1.479-0.786,2.285l-1.464,7.299
		c-0.023,0.12-0.081,0.226-0.171,0.316c-0.091,0.09-0.229,0.165-0.416,0.226s-0.431,0.105-0.731,0.136
		c-0.301,0.029-0.668,0.045-1.102,0.045c-0.446,0-0.811-0.016-1.094-0.045c-0.283-0.03-0.506-0.075-0.668-0.136
		c-0.163-0.061-0.269-0.136-0.316-0.226c-0.048-0.091-0.061-0.196-0.036-0.316l3.233-16.134c0.024-0.12,0.075-0.226,0.154-0.315
		c0.078-0.091,0.198-0.163,0.361-0.217c0.162-0.055,0.373-0.097,0.632-0.127c0.259-0.029,0.569-0.045,0.931-0.045
		c0.373,0,0.678,0.016,0.912,0.045c0.235,0.03,0.419,0.072,0.551,0.127c0.133,0.054,0.22,0.126,0.263,0.217
		c0.042,0.09,0.051,0.195,0.026,0.315l-0.523,2.656c0.253-0.422,0.59-0.852,1.012-1.292c0.422-0.439,0.9-0.834,1.437-1.183
		c0.535-0.35,1.12-0.636,1.752-0.858c0.633-0.223,1.286-0.335,1.96-0.335c0.699,0,1.304,0.094,1.816,0.28
		c0.512,0.188,0.933,0.446,1.265,0.777c0.331,0.331,0.584,0.72,0.759,1.165c0.174,0.445,0.286,0.928,0.334,1.445
		c0.277-0.434,0.629-0.867,1.057-1.301s0.909-0.825,1.445-1.174c0.536-0.35,1.117-0.636,1.744-0.858
		c0.626-0.223,1.271-0.335,1.933-0.335c0.843,0,1.551,0.118,2.123,0.353c0.571,0.235,1.032,0.561,1.382,0.976
		c0.35,0.416,0.603,0.903,0.759,1.464c0.156,0.56,0.235,1.165,0.235,1.815c0,0.422-0.024,0.847-0.072,1.273
		c-0.049,0.428-0.121,0.864-0.217,1.311L287.922,144.04z"/>
	<path style="fill:#123458;" d="M307.158,144.059c-0.048,0.252-0.238,0.434-0.569,0.541c-0.331,0.109-0.864,0.163-1.599,0.163
		c-0.373,0-0.678-0.012-0.912-0.036c-0.235-0.024-0.425-0.063-0.569-0.117c-0.145-0.055-0.238-0.127-0.28-0.217
		c-0.042-0.091-0.051-0.202-0.027-0.334l0.506-2.584c-0.18,0.386-0.469,0.792-0.867,1.22c-0.396,0.428-0.867,0.815-1.408,1.165
		c-0.543,0.35-1.142,0.639-1.798,0.867c-0.657,0.229-1.334,0.344-2.032,0.344c-0.964,0-1.765-0.169-2.403-0.506
		c-0.639-0.338-1.15-0.792-1.536-1.364c-0.385-0.572-0.659-1.226-0.821-1.96c-0.163-0.735-0.244-1.506-0.244-2.313
		c0-0.76,0.072-1.587,0.217-2.484s0.367-1.792,0.669-2.684c0.301-0.891,0.686-1.749,1.156-2.574
		c0.469-0.824,1.032-1.557,1.688-2.195c0.656-0.638,1.409-1.146,2.259-1.526c0.849-0.379,1.81-0.569,2.881-0.569
		c1,0,1.886,0.208,2.656,0.624c0.771,0.415,1.445,1.021,2.023,1.815l0.289-1.428c0.048-0.252,0.237-0.434,0.569-0.541
		c0.331-0.109,0.864-0.163,1.599-0.163c0.361,0,0.662,0.016,0.903,0.045c0.241,0.03,0.431,0.072,0.569,0.127
		c0.138,0.054,0.231,0.126,0.279,0.217c0.049,0.09,0.061,0.195,0.037,0.315L307.158,144.059z M304.918,132.748
		c-0.422-0.662-0.889-1.158-1.4-1.49c-0.512-0.331-1.104-0.496-1.779-0.496c-0.506,0-0.97,0.12-1.391,0.361
		c-0.422,0.24-0.795,0.563-1.121,0.966c-0.324,0.404-0.611,0.87-0.857,1.4c-0.247,0.53-0.452,1.081-0.614,1.653
		c-0.163,0.572-0.283,1.15-0.361,1.734c-0.079,0.584-0.118,1.123-0.118,1.617c0,0.361,0.027,0.704,0.082,1.029
		c0.054,0.325,0.153,0.614,0.298,0.867s0.337,0.455,0.578,0.605s0.548,0.226,0.921,0.226c0.53,0,1.072-0.159,1.627-0.479
		c0.554-0.319,1.071-0.753,1.553-1.301c0.482-0.548,0.906-1.187,1.274-1.915c0.367-0.729,0.635-1.509,0.804-2.34L304.918,132.748z"
		/>
	<path style="fill:#123458;" d="M324.913,127.672c0,0.084-0.012,0.234-0.036,0.451s-0.061,0.471-0.108,0.76
		s-0.108,0.587-0.181,0.894c-0.072,0.308-0.153,0.594-0.244,0.858c-0.09,0.265-0.192,0.481-0.307,0.65
		c-0.115,0.169-0.238,0.253-0.371,0.253c-0.107,0-0.217-0.021-0.324-0.063c-0.109-0.042-0.229-0.084-0.361-0.126
		c-0.133-0.042-0.277-0.084-0.434-0.127c-0.157-0.042-0.338-0.063-0.543-0.063c-0.409,0-0.846,0.157-1.31,0.471
		c-0.464,0.313-0.906,0.726-1.327,1.237c-0.422,0.512-0.799,1.108-1.13,1.788c-0.331,0.681-0.569,1.395-0.714,2.141l-1.445,7.245
		c-0.023,0.12-0.081,0.226-0.171,0.316c-0.091,0.09-0.229,0.165-0.416,0.226s-0.431,0.105-0.731,0.136
		c-0.301,0.029-0.668,0.045-1.102,0.045c-0.446,0-0.811-0.016-1.094-0.045c-0.283-0.03-0.506-0.075-0.668-0.136
		c-0.163-0.061-0.269-0.136-0.316-0.226c-0.048-0.091-0.061-0.196-0.036-0.316l3.216-16.134c0.024-0.12,0.078-0.226,0.162-0.315
		c0.085-0.091,0.208-0.163,0.371-0.217c0.162-0.055,0.373-0.097,0.632-0.127c0.259-0.029,0.569-0.045,0.931-0.045
		c0.373,0,0.678,0.016,0.912,0.045c0.235,0.03,0.419,0.072,0.551,0.127c0.133,0.054,0.22,0.126,0.263,0.217
		c0.042,0.09,0.051,0.195,0.026,0.315l-0.506,2.566c0.289-0.519,0.624-0.994,1.003-1.428c0.38-0.434,0.783-0.81,1.211-1.129
		c0.427-0.319,0.87-0.569,1.327-0.75c0.458-0.181,0.91-0.271,1.355-0.271c0.181,0,0.364,0.013,0.551,0.037
		c0.187,0.023,0.361,0.054,0.524,0.09c0.162,0.036,0.307,0.081,0.434,0.136c0.126,0.054,0.226,0.111,0.298,0.171
		C324.877,127.4,324.913,127.516,324.913,127.672z"/>
	<path style="fill:#123458;" d="M337.051,128.088c0,0.12-0.013,0.273-0.037,0.46c-0.023,0.188-0.057,0.389-0.099,0.605
		c-0.043,0.217-0.1,0.434-0.172,0.65s-0.153,0.413-0.244,0.587c-0.09,0.175-0.192,0.319-0.307,0.434
		c-0.115,0.115-0.238,0.172-0.37,0.172h-3.523l-1.518,7.57c-0.036,0.18-0.069,0.395-0.1,0.641c-0.03,0.247-0.045,0.449-0.045,0.605
		c0,0.481,0.114,0.834,0.344,1.057c0.229,0.224,0.59,0.334,1.084,0.334c0.289,0,0.535-0.021,0.74-0.063s0.382-0.091,0.533-0.145
		c0.15-0.055,0.279-0.103,0.389-0.145c0.107-0.042,0.21-0.063,0.307-0.063s0.178,0.045,0.244,0.136c0.065,0.09,0.1,0.237,0.1,0.442
		c0,0.229-0.024,0.487-0.072,0.776c-0.049,0.289-0.112,0.569-0.19,0.841c-0.078,0.271-0.165,0.518-0.262,0.74
		c-0.097,0.224-0.198,0.389-0.308,0.497c-0.107,0.108-0.271,0.211-0.487,0.307c-0.217,0.097-0.473,0.182-0.768,0.254
		c-0.296,0.072-0.611,0.129-0.948,0.171c-0.338,0.042-0.675,0.063-1.012,0.063c-0.723,0-1.358-0.075-1.906-0.226
		c-0.549-0.15-1.009-0.389-1.383-0.714c-0.373-0.325-0.653-0.74-0.84-1.246s-0.279-1.121-0.279-1.844
		c0-0.132,0.006-0.285,0.018-0.46s0.033-0.358,0.063-0.552c0.029-0.192,0.06-0.388,0.09-0.587c0.03-0.198,0.063-0.376,0.1-0.532
		l1.571-7.859h-1.951c-0.156,0-0.271-0.051-0.343-0.153s-0.108-0.298-0.108-0.587c0-0.205,0.021-0.473,0.063-0.805
		c0.042-0.331,0.111-0.656,0.208-0.976c0.096-0.318,0.223-0.593,0.379-0.821c0.156-0.229,0.344-0.344,0.561-0.344h1.933l0.723-3.596
		c0.024-0.12,0.081-0.229,0.172-0.324c0.09-0.097,0.229-0.178,0.415-0.244s0.428-0.114,0.723-0.145s0.666-0.045,1.111-0.045
		c0.434,0,0.795,0.015,1.084,0.045s0.512,0.078,0.668,0.145c0.157,0.066,0.263,0.147,0.316,0.244
		c0.055,0.096,0.069,0.204,0.045,0.324l-0.723,3.596h3.487c0.205,0,0.343,0.066,0.415,0.199
		C337.014,127.642,337.051,127.834,337.051,128.088z"/>
	<path style="fill:#123458;" d="M365.352,122.035c0,0.084-0.01,0.22-0.027,0.406c-0.019,0.188-0.049,0.395-0.091,0.623
		c-0.042,0.229-0.097,0.468-0.162,0.714c-0.066,0.247-0.145,0.473-0.235,0.678c-0.09,0.205-0.198,0.373-0.325,0.506
		c-0.126,0.133-0.262,0.198-0.406,0.198h-5.872l-3.758,18.844c-0.035,0.12-0.102,0.229-0.198,0.325s-0.244,0.175-0.442,0.235
		c-0.199,0.06-0.452,0.107-0.759,0.145c-0.308,0.035-0.696,0.054-1.165,0.054c-0.458,0-0.838-0.019-1.139-0.054
		c-0.301-0.037-0.533-0.085-0.695-0.145c-0.163-0.061-0.271-0.139-0.325-0.235c-0.055-0.097-0.069-0.205-0.046-0.325l3.758-18.844
		h-5.816c-0.182,0-0.305-0.065-0.371-0.198s-0.1-0.313-0.1-0.542c0-0.097,0.01-0.237,0.027-0.425
		c0.019-0.187,0.048-0.397,0.091-0.632c0.042-0.235,0.096-0.476,0.162-0.723s0.147-0.473,0.244-0.678s0.205-0.37,0.325-0.497
		c0.12-0.126,0.253-0.189,0.397-0.189h16.477c0.145,0,0.256,0.066,0.334,0.198C365.312,121.607,365.352,121.794,365.352,122.035z"/>
	<path style="fill:#123458;" d="M375.536,144.059c-0.048,0.252-0.238,0.434-0.569,0.541c-0.331,0.109-0.864,0.163-1.599,0.163
		c-0.373,0-0.678-0.012-0.912-0.036c-0.235-0.024-0.425-0.063-0.569-0.117c-0.145-0.055-0.238-0.127-0.28-0.217
		c-0.042-0.091-0.051-0.202-0.026-0.334l0.506-2.584c-0.182,0.386-0.471,0.792-0.867,1.22c-0.398,0.428-0.867,0.815-1.41,1.165
		c-0.541,0.35-1.141,0.639-1.797,0.867c-0.657,0.229-1.334,0.344-2.033,0.344c-0.963,0-1.764-0.169-2.402-0.506
		c-0.639-0.338-1.15-0.792-1.535-1.364c-0.386-0.572-0.66-1.226-0.822-1.96c-0.163-0.735-0.244-1.506-0.244-2.313
		c0-0.76,0.072-1.587,0.217-2.484s0.367-1.792,0.668-2.684c0.302-0.891,0.688-1.749,1.156-2.574
		c0.471-0.824,1.033-1.557,1.689-2.195c0.656-0.638,1.409-1.146,2.259-1.526c0.849-0.379,1.81-0.569,2.882-0.569
		c0.999,0,1.885,0.208,2.655,0.624c0.771,0.415,1.445,1.021,2.023,1.815l0.289-1.428c0.048-0.252,0.237-0.434,0.569-0.541
		c0.331-0.109,0.864-0.163,1.599-0.163c0.361,0,0.662,0.016,0.903,0.045c0.241,0.03,0.431,0.072,0.569,0.127
		c0.138,0.054,0.231,0.126,0.28,0.217c0.048,0.09,0.06,0.195,0.035,0.315L375.536,144.059z M373.296,132.748
		c-0.422-0.662-0.889-1.158-1.4-1.49c-0.512-0.331-1.104-0.496-1.779-0.496c-0.506,0-0.97,0.12-1.392,0.361
		c-0.421,0.24-0.795,0.563-1.119,0.966c-0.326,0.404-0.612,0.87-0.858,1.4c-0.247,0.53-0.452,1.081-0.614,1.653
		c-0.163,0.572-0.283,1.15-0.361,1.734c-0.079,0.584-0.117,1.123-0.117,1.617c0,0.361,0.026,0.704,0.081,1.029
		c0.054,0.325,0.153,0.614,0.298,0.867s0.337,0.455,0.578,0.605s0.548,0.226,0.922,0.226c0.529,0,1.071-0.159,1.625-0.479
		c0.555-0.319,1.072-0.753,1.555-1.301c0.481-0.548,0.905-1.187,1.273-1.915c0.367-0.729,0.635-1.509,0.804-2.34L373.296,132.748z"
		/>
	<path style="fill:#123458;" d="M384.457,144.04c-0.024,0.12-0.082,0.226-0.172,0.316c-0.091,0.09-0.227,0.165-0.406,0.226
		c-0.182,0.061-0.422,0.105-0.723,0.136c-0.302,0.029-0.669,0.045-1.103,0.045c-0.458,0-0.828-0.016-1.111-0.045
		c-0.283-0.03-0.503-0.075-0.659-0.136s-0.262-0.136-0.316-0.226c-0.054-0.091-0.069-0.196-0.045-0.316l4.752-23.757
		c0.023-0.121,0.078-0.229,0.162-0.326c0.084-0.096,0.223-0.177,0.416-0.243c0.192-0.066,0.436-0.118,0.731-0.153
		c0.295-0.037,0.665-0.055,1.11-0.055c0.446,0,0.811,0.018,1.094,0.055c0.282,0.035,0.503,0.087,0.659,0.153
		s0.259,0.147,0.308,0.243c0.048,0.097,0.06,0.205,0.035,0.326L384.457,144.04z"/>
	<path style="fill:#123458;" d="M405.607,131.466c0,0.867-0.195,1.647-0.587,2.34s-1,1.289-1.824,1.788
		c-0.825,0.5-1.873,0.883-3.144,1.147c-1.271,0.265-2.785,0.397-4.544,0.397h-1.662c-0.048,0.277-0.084,0.551-0.108,0.822
		c-0.024,0.271-0.036,0.521-0.036,0.75c0,0.975,0.253,1.71,0.759,2.203c0.506,0.494,1.318,0.741,2.439,0.741
		c0.795,0,1.508-0.057,2.141-0.172c0.632-0.114,1.186-0.24,1.662-0.379c0.476-0.139,0.87-0.265,1.184-0.38
		c0.313-0.114,0.541-0.172,0.686-0.172s0.247,0.043,0.308,0.127s0.091,0.217,0.091,0.397c0,0.205-0.019,0.439-0.055,0.704
		c-0.036,0.266-0.088,0.527-0.153,0.786c-0.066,0.26-0.151,0.503-0.253,0.731c-0.103,0.229-0.22,0.404-0.353,0.524
		c-0.145,0.145-0.409,0.289-0.795,0.434s-0.849,0.277-1.392,0.397c-0.541,0.12-1.149,0.22-1.824,0.298s-1.361,0.118-2.06,0.118
		c-1.156,0-2.165-0.121-3.026-0.361c-0.861-0.241-1.58-0.608-2.158-1.103s-1.012-1.123-1.301-1.888s-0.434-1.672-0.434-2.719
		c0-0.808,0.074-1.672,0.226-2.593c0.15-0.922,0.395-1.831,0.731-2.729c0.337-0.896,0.771-1.755,1.301-2.574
		s1.171-1.538,1.924-2.159c0.753-0.62,1.623-1.117,2.611-1.49c0.987-0.373,2.113-0.561,3.378-0.561c1.096,0,2.038,0.13,2.827,0.389
		c0.789,0.26,1.437,0.603,1.942,1.03s0.882,0.915,1.129,1.463C405.484,130.325,405.607,130.888,405.607,131.466z M401.146,131.809
		c0-0.481-0.189-0.882-0.569-1.201c-0.379-0.318-0.93-0.479-1.652-0.479c-0.603,0-1.142,0.108-1.617,0.325
		c-0.477,0.217-0.895,0.509-1.256,0.876c-0.361,0.368-0.672,0.802-0.931,1.301c-0.259,0.5-0.467,1.033-0.623,1.6h1.518
		c0.964,0,1.771-0.063,2.421-0.19c0.65-0.126,1.174-0.298,1.572-0.515c0.396-0.217,0.686-0.473,0.867-0.768
		C401.055,132.463,401.146,132.146,401.146,131.809z"/>
	<path style="fill:#123458;" d="M424.141,131.52c0,0.422-0.027,0.844-0.082,1.266c-0.054,0.421-0.123,0.854-0.207,1.301
		l-2.006,9.954c-0.024,0.12-0.081,0.226-0.172,0.316c-0.09,0.09-0.229,0.165-0.415,0.226c-0.188,0.061-0.428,0.105-0.723,0.136
		c-0.296,0.029-0.666,0.045-1.111,0.045s-0.811-0.016-1.093-0.045c-0.283-0.03-0.503-0.075-0.66-0.136
		c-0.156-0.061-0.262-0.136-0.315-0.226c-0.055-0.091-0.069-0.196-0.046-0.316l1.951-9.665c0.061-0.289,0.105-0.585,0.136-0.886
		s0.046-0.566,0.046-0.795c0-0.542-0.115-0.987-0.344-1.337s-0.614-0.523-1.156-0.523c-0.494,0-1.009,0.156-1.545,0.469
		c-0.536,0.313-1.042,0.738-1.518,1.274s-0.9,1.162-1.273,1.879s-0.639,1.479-0.795,2.285l-1.463,7.299
		c-0.024,0.12-0.082,0.226-0.172,0.316c-0.091,0.09-0.229,0.165-0.416,0.226s-0.431,0.105-0.731,0.136
		c-0.301,0.029-0.669,0.045-1.103,0.045c-0.445,0-0.81-0.016-1.093-0.045c-0.283-0.03-0.506-0.075-0.668-0.136
		c-0.163-0.061-0.269-0.136-0.316-0.226c-0.048-0.091-0.061-0.196-0.036-0.316l3.234-16.134c0.023-0.12,0.074-0.226,0.153-0.315
		c0.078-0.091,0.198-0.163,0.361-0.217c0.162-0.055,0.373-0.097,0.632-0.127c0.259-0.029,0.569-0.045,0.931-0.045
		c0.373,0,0.678,0.016,0.912,0.045c0.235,0.03,0.419,0.072,0.552,0.127c0.132,0.054,0.219,0.126,0.262,0.217
		c0.042,0.09,0.051,0.195,0.027,0.315l-0.524,2.656c0.253-0.422,0.59-0.852,1.012-1.292c0.422-0.439,0.906-0.834,1.454-1.183
		c0.548-0.35,1.145-0.636,1.789-0.858c0.644-0.223,1.315-0.335,2.014-0.335c0.844,0,1.551,0.124,2.123,0.371
		s1.036,0.581,1.392,1.002c0.354,0.422,0.611,0.913,0.768,1.473C424.062,130.301,424.141,130.894,424.141,131.52z"/>
	<path style="fill:#123458;" d="M438.463,128.088c0,0.12-0.013,0.273-0.037,0.46c-0.023,0.188-0.057,0.389-0.099,0.605
		c-0.043,0.217-0.1,0.434-0.172,0.65s-0.153,0.413-0.244,0.587c-0.09,0.175-0.192,0.319-0.307,0.434
		c-0.115,0.115-0.238,0.172-0.37,0.172h-3.523l-1.518,7.57c-0.036,0.18-0.069,0.395-0.1,0.641c-0.03,0.247-0.045,0.449-0.045,0.605
		c0,0.481,0.114,0.834,0.344,1.057c0.229,0.224,0.59,0.334,1.084,0.334c0.289,0,0.535-0.021,0.74-0.063s0.382-0.091,0.533-0.145
		c0.15-0.055,0.279-0.103,0.389-0.145c0.107-0.042,0.21-0.063,0.307-0.063s0.178,0.045,0.244,0.136c0.065,0.09,0.1,0.237,0.1,0.442
		c0,0.229-0.024,0.487-0.072,0.776c-0.049,0.289-0.112,0.569-0.19,0.841c-0.078,0.271-0.165,0.518-0.262,0.74
		c-0.097,0.224-0.198,0.389-0.308,0.497c-0.107,0.108-0.271,0.211-0.487,0.307c-0.217,0.097-0.473,0.182-0.768,0.254
		c-0.296,0.072-0.611,0.129-0.948,0.171c-0.338,0.042-0.675,0.063-1.012,0.063c-0.723,0-1.358-0.075-1.906-0.226
		c-0.549-0.15-1.009-0.389-1.383-0.714c-0.373-0.325-0.653-0.74-0.84-1.246s-0.279-1.121-0.279-1.844
		c0-0.132,0.006-0.285,0.018-0.46s0.033-0.358,0.063-0.552c0.029-0.192,0.06-0.388,0.09-0.587c0.03-0.198,0.063-0.376,0.1-0.532
		l1.571-7.859h-1.951c-0.156,0-0.271-0.051-0.343-0.153s-0.108-0.298-0.108-0.587c0-0.205,0.021-0.473,0.063-0.805
		c0.042-0.331,0.111-0.656,0.208-0.976c0.096-0.318,0.223-0.593,0.379-0.821c0.156-0.229,0.344-0.344,0.561-0.344h1.933l0.723-3.596
		c0.024-0.12,0.081-0.229,0.172-0.324c0.09-0.097,0.229-0.178,0.415-0.244s0.428-0.114,0.723-0.145s0.666-0.045,1.111-0.045
		c0.434,0,0.795,0.015,1.084,0.045s0.512,0.078,0.668,0.145c0.157,0.066,0.263,0.147,0.316,0.244
		c0.055,0.096,0.069,0.204,0.045,0.324l-0.723,3.596h3.487c0.205,0,0.343,0.066,0.415,0.199
		C438.426,127.642,438.463,127.834,438.463,128.088z"/>
</g>
</svg>
